<svg width="22" height="21" viewBox="0 0 22 21" fill="none" xmlns="http://www.w3.org/2000/svg">
<path d="M19.1765 4.52939L21.6471 7H16V1.35294L18.4706 3.82351L21.2941 1L22 1.70588L19.1765 4.52939Z" fill="#8E9091"/>
<path fill-rule="evenodd" clip-rule="evenodd" d="M17.9888 10.5146C17.7251 14.6948 14.2512 18.0029 10.0049 18.0029C5.58667 18.0029 2.00488 14.4214 2.00488 10.0029C2.00488 5.58447 5.58667 2.00293 10.0049 2.00293C10.833 2.00293 11.6316 2.12891 12.3828 2.3623L14.6016 1.11963C13.2253 0.40625 11.6621 0.00292969 10.0049 0.00292969C4.48193 0.00292969 0.00488281 4.47998 0.00488281 10.0029C0.00488281 15.5259 4.48193 20.0029 10.0049 20.0029C15.5276 20.0029 20.0049 15.5259 20.0049 10.0029C20.0049 9.79883 19.9988 9.59668 19.9868 9.39551L17.9888 10.5146ZM12.0049 12.0029H6.50488V14.0029H9.00488V16.0029H11.0049V14.0029H12.0049C13.3855 14.0029 14.5049 12.8838 14.5049 11.5029C14.5049 10.1221 13.3855 9.00293 12.0049 9.00293H8.00488C7.72876 9.00293 7.50488 8.7793 7.50488 8.50293C7.50488 8.22656 7.72876 8.00293 8.00488 8.00293H13.5049V6.00293H11.0049V4.00293H9.00488V6.00293H8.00488C6.62427 6.00293 5.50488 7.12207 5.50488 8.50293C5.50488 9.88379 6.62427 11.0029 8.00488 11.0029H12.0049C12.281 11.0029 12.5049 11.2266 12.5049 11.5029C12.5049 11.7793 12.281 12.0029 12.0049 12.0029Z" fill="#8E9091"/>
</svg>
