<svg width="23" height="20" viewBox="0 0 23 20" fill="none" xmlns="http://www.w3.org/2000/svg">
<path d="M19.4827 4.26861L21.4537 7.15358L22.4983 1.60396L16.9487 0.559425L18.9196 3.44435L15.6225 5.69691L16.1857 6.52117L19.4827 4.26861Z" fill="#8E9091"/>
<path fill-rule="evenodd" clip-rule="evenodd" d="M17.9839 10.5115C17.7201 14.6915 14.2465 18 10 18C5.58172 18 2 14.4183 2 9.99997C2 5.58172 5.58172 2 10 2C10.8281 2 11.6267 2.1258 12.3779 2.35933L14.5966 1.11672C13.2204 0.403148 11.6573 0 10 0C4.47716 0 0 4.47715 0 9.99997C0 15.5229 4.47716 20 10 20C15.5228 20 20 15.5229 20 9.99997C20 9.79601 19.9939 9.59349 19.9819 9.39256L17.9839 10.5115ZM12 12H6.5V14H9.00002V16H11V14H12C13.3807 14 14.5 12.8807 14.5 11.5C14.5 10.1193 13.3807 8.99997 12 8.99997H8.00002C7.72386 8.99997 7.5 8.77617 7.5 8.49997C7.5 8.22387 7.72386 7.99997 8.00002 7.99997H13.5V6H11V4H9.00002V6H8.00002C6.61929 6 5.5 7.11929 5.5 8.49997C5.5 9.88067 6.61929 11 8.00002 11H12C12.2761 11 12.5 11.2239 12.5 11.5C12.5 11.7762 12.2761 12 12 12Z" fill="#8E9091"/>
</svg>
